<?xml version="1.0" standalone="no"?>
<!DOCTYPE svg PUBLIC "-//W3C//DTD SVG 20010904//EN"
 "http://www.w3.org/TR/2001/REC-SVG-20010904/DTD/svg10.dtd">
<svg version="1.0" xmlns="http://www.w3.org/2000/svg"
 width="1080.000000pt" height="1080.000000pt" viewBox="0 0 1080.000000 1080.000000"
 preserveAspectRatio="xMidYMid meet">
<metadata>
Created by potrace 1.14, written by Peter Selinger 2001-2017
</metadata>
<g transform="translate(0.000000,1080.000000) scale(0.100000,-0.100000)"
fill="#000000" stroke="none">
<path d="M0 5400 l0 -5400 5400 0 5400 0 0 5400 0 5400 -5400 0 -5400 0 0
-5400z m5578 3981 c1 -3 27 -60 58 -126 30 -66 74 -166 96 -222 23 -57 45
-103 50 -103 4 0 8 71 8 158 0 86 3 187 7 225 l6 67 73 0 c40 0 74 -3 77 -7 3
-7 -18 -654 -22 -660 0 -2 -50 -3 -110 -3 l-108 0 -31 63 c-61 125 -159 343
-168 372 -7 26 -9 19 -15 -45 -3 -41 -7 -137 -8 -212 0 -75 -4 -143 -7 -152
-5 -13 -22 -16 -81 -16 l-76 0 7 198 c3 108 9 262 12 341 l7 143 111 -7 c61
-4 112 -10 114 -14z m-523 -308 c32 -159 60 -306 62 -328 l5 -40 -85 -15 -86
-16 -15 69 c-9 37 -21 97 -28 133 -6 37 -17 64 -24 64 -6 0 -56 -9 -109 -20
-53 -11 -99 -20 -102 -20 -2 0 -2 -8 1 -17 7 -21 46 -233 46 -249 0 -13 -161
-48 -170 -37 -8 9 -134 643 -128 648 9 9 163 34 169 28 3 -5 17 -59 29 -120
21 -101 26 -113 44 -113 21 0 197 37 201 42 1 2 -8 57 -21 122 -13 66 -22 122
-19 124 6 6 116 29 146 31 l26 1 58 -287z m1348 216 c32 -7 61 -18 64 -24 4
-13 -4 -56 -82 -420 -20 -93 -39 -182 -42 -197 -3 -16 -10 -28 -15 -28 -19 0
-153 32 -160 39 -4 3 -3 24 2 46 5 22 28 126 50 230 82 382 80 377 104 371 12
-3 47 -11 79 -17z m-2274 -221 c11 -34 20 -62 18 -63 -1 -1 -27 -7 -58 -14
-107 -23 -188 -97 -203 -184 -21 -117 85 -247 200 -247 43 0 125 32 169 66 25
19 49 33 53 30 4 -2 21 -30 37 -60 l30 -57 -25 -20 c-69 -56 -241 -119 -325
-119 -152 0 -283 126 -316 303 -31 170 82 324 295 403 95 36 101 34 125 -38z
m2933 11 c59 -13 163 -57 208 -89 l30 -21 -30 -60 c-17 -32 -32 -59 -34 -59
-2 0 -28 16 -57 35 -131 86 -259 66 -318 -50 -38 -73 -37 -166 3 -223 34 -50
130 -101 201 -110 28 -3 44 -9 42 -16 -3 -6 -13 -37 -23 -68 -10 -32 -22 -58
-28 -58 -31 0 -130 34 -196 66 -170 84 -246 226 -206 382 54 213 206 314 408
271z m518 -39 c0 -5 -5 -10 -11 -10 -5 0 -7 5 -4 10 3 6 8 10 11 10 2 0 4 -4
4 -10z m160 0 c0 -5 -2 -10 -4 -10 -3 0 -8 5 -11 10 -3 6 -1 10 4 10 6 0 11
-4 11 -10z m-128 -28 c-20 -6 -14 -16 19 -31 36 -16 47 -10 24 13 -9 9 -12 16
-6 16 5 0 16 -6 23 -13 13 -14 95 -16 116 -3 12 7 62 -13 62 -26 0 -4 6 -8 13
-8 8 0 22 -9 32 -20 10 -11 42 -31 72 -44 29 -14 53 -32 53 -40 0 -8 13 -17
30 -21 16 -4 28 -10 27 -15 -1 -4 1 -9 5 -9 4 -1 19 -13 32 -26 14 -14 30 -25
35 -25 6 0 25 -14 43 -30 53 -49 61 -56 93 -75 52 -33 515 -521 515 -544 0 -5
20 -31 44 -57 25 -26 43 -51 41 -55 -3 -3 4 -14 15 -24 11 -10 20 -24 20 -31
0 -12 21 -41 64 -87 10 -11 19 -33 18 -48 0 -19 4 -26 12 -23 7 3 25 -11 40
-31 20 -26 23 -35 12 -35 -9 0 -18 11 -22 25 -4 15 -13 25 -24 25 -15 0 -17
-7 -13 -42 6 -50 11 -58 23 -38 8 12 10 10 10 -9 0 -24 0 -24 21 -5 20 18 21
18 35 -1 16 -22 18 -35 5 -35 -5 0 -13 9 -16 20 -10 31 -26 13 -23 -25 2 -39
-1 -44 -31 -50 -16 -3 -24 3 -31 21 -13 32 -12 37 0 29 6 -3 10 -3 10 2 -1 12
-58 73 -69 73 -12 0 -23 29 -14 42 3 6 1 8 -5 4 -10 -6 -62 34 -62 49 0 8 -36
53 -89 115 -17 19 -46 58 -63 85 -18 28 -36 51 -40 53 -4 2 -46 47 -94 100
-189 211 -250 276 -276 292 -15 9 -57 43 -93 76 -214 192 -264 234 -281 234
-6 0 -23 14 -37 30 -15 17 -33 30 -40 30 -6 0 -23 12 -36 25 -13 14 -31 25
-40 25 -13 0 -14 2 -2 9 11 7 5 11 -22 16 -20 4 -37 12 -37 17 0 16 -42 49
-56 44 -7 -3 -18 2 -24 10 -7 8 -19 14 -26 14 -8 0 -14 4 -14 9 0 5 -8 12 -17
14 -13 3 -12 5 5 6 13 0 20 5 17 11 -4 6 1 7 11 3 11 -4 13 -8 6 -11z m-4268
-307 c52 -81 59 -63 -64 -155 l-110 -82 16 -27 c9 -14 26 -38 38 -54 l22 -28
102 76 c57 41 105 75 107 75 2 0 20 -23 39 -52 l35 -52 -62 -45 c-91 -67 -137
-105 -137 -113 0 -20 73 -107 83 -101 7 4 56 40 109 80 54 40 103 73 110 73 7
0 27 -22 45 -49 l32 -49 -176 -132 c-96 -72 -181 -134 -188 -136 -6 -3 -68 75
-145 183 -73 103 -159 224 -191 268 l-58 80 36 30 c69 57 318 234 329 235 7 0
19 -11 28 -25z m4509 -72 c42 -30 77 -59 77 -66 0 -6 -9 -45 -20 -86 -38 -146
-120 -497 -120 -514 0 -10 -7 -33 -15 -53 l-14 -35 -73 52 c-40 29 -75 54 -78
56 -2 2 4 32 13 67 9 36 17 69 17 75 0 12 -178 141 -194 141 -6 0 -33 -16 -60
-35 -27 -19 -54 -35 -60 -35 -6 0 -42 21 -80 47 l-69 47 24 18 c298 216 552
387 564 380 6 -3 45 -30 88 -59z m-5083 -418 l44 -45 -58 -59 c-32 -32 -57
-63 -55 -68 2 -5 86 -87 187 -183 100 -95 182 -178 182 -184 0 -12 -107 -126
-118 -126 -6 0 -62 53 -293 276 -42 41 -81 74 -87 74 -6 0 -33 -25 -60 -57
l-50 -56 -46 39 c-26 21 -45 44 -44 51 3 15 338 383 348 383 3 0 26 -20 50
-45z m4041 15 c20 -11 54 -21 77 -24 23 -3 50 -10 62 -16 11 -6 24 -8 29 -5 5
3 11 1 13 -4 1 -6 15 -11 29 -13 15 -2 43 -16 63 -32 21 -15 43 -29 50 -30 7
-1 25 -12 40 -24 16 -12 33 -22 37 -22 5 0 32 -16 60 -36 28 -19 58 -38 68
-42 64 -26 492 -409 506 -454 3 -9 29 -43 58 -76 71 -81 138 -168 162 -211 31
-54 79 -126 88 -129 4 -2 7 -10 7 -19 0 -8 14 -34 30 -58 29 -42 41 -83 20
-70 -6 3 -7 -1 -4 -9 3 -9 10 -16 14 -16 5 0 19 -14 31 -32 16 -22 18 -30 8
-26 -12 5 -14 0 -11 -23 2 -16 10 -29 18 -29 15 0 17 -19 14 -118 -1 -48 3
-70 19 -98 24 -40 23 -48 -3 -38 -9 3 -16 17 -16 33 0 20 -2 23 -10 11 -9 -13
-10 -13 -11 0 -1 8 -1 19 0 23 1 5 -8 20 -19 34 -11 14 -20 31 -20 38 0 7 -7
19 -16 26 -9 7 -20 22 -25 34 -5 11 -13 27 -19 35 -5 8 -17 33 -27 55 -17 41
-49 92 -69 110 -21 19 -74 112 -74 128 0 10 -5 17 -10 17 -6 0 -23 19 -38 43
-15 23 -38 54 -52 70 -14 15 -54 61 -90 103 -119 138 -382 396 -485 475 -16
13 -32 26 -35 29 -3 4 -36 28 -75 53 -38 26 -108 74 -155 107 -47 32 -105 69
-130 80 -24 12 -47 24 -50 28 -3 4 -18 15 -35 25 -26 16 -44 24 -105 50 -8 4
-22 11 -30 16 -8 5 -29 16 -47 23 -32 13 -32 13 -10 25 29 17 119 7 168 -17z
m1608 -84 c28 -33 51 -62 51 -66 0 -4 -83 -87 -185 -185 l-185 -177 62 -70
c35 -38 74 -83 87 -99 l24 -30 -44 -45 c-24 -24 -47 -43 -52 -41 -11 3 -297
320 -296 327 3 13 465 449 475 447 6 -1 34 -29 63 -61z m-2546 -773 c-7 -2
-19 -2 -25 0 -7 3 -2 5 12 5 14 0 19 -2 13 -5z m320 0 c-7 -2 -21 -2 -30 0
-10 3 -4 5 12 5 17 0 24 -2 18 -5z m1117 -78 c-12 -13 -27 -22 -31 -19 -5 3
-9 -1 -9 -8 0 -36 -186 -229 -630 -654 -58 -55 -130 -123 -160 -151 -352 -323
-745 -686 -825 -764 -239 -231 -1037 -967 -1380 -1274 -55 -49 -104 -95 -108
-102 -8 -12 -137 -20 -137 -8 0 3 8 13 18 23 9 10 32 36 51 57 l33 40 -6 325
c-3 179 -6 628 -6 998 0 575 -2 672 -14 672 -8 0 -126 -55 -263 -121 -156 -77
-264 -124 -291 -127 -32 -3 -40 -8 -32 -17 10 -12 -6 -25 -28 -25 -6 0 -9 402
-4 438 1 8 26 12 81 12 48 0 83 4 87 11 5 8 -18 10 -80 8 l-86 -4 0 28 c0 25
3 27 48 29 l47 2 -47 3 c-40 3 -48 8 -48 24 0 17 8 19 90 19 53 0 90 4 90 10
0 6 -13 10 -29 10 -17 0 -33 5 -36 10 -4 6 15 10 50 10 31 0 54 4 51 9 -3 4
56 11 132 15 146 7 1602 9 1609 2 5 -5 4 -649 -1 -654 -3 -2 -144 66 -315 152
-171 86 -315 156 -321 156 -7 0 -10 -208 -10 -637 l1 -638 140 145 c77 80 179
189 228 242 86 96 132 138 319 288 l92 74 0 433 0 433 193 1 c603 2 861 9 882
24 24 17 218 172 336 268 46 38 99 81 118 95 18 15 38 32 45 37 6 6 29 24 51
40 22 16 57 44 78 63 43 38 63 36 27 -3z m224 -17 c-39 -47 -123 -137 -244
-263 -313 -326 -360 -376 -360 -383 0 -4 35 -18 78 -31 42 -12 105 -38 140
-58 229 -127 338 -438 249 -709 -53 -161 -158 -277 -313 -345 -42 -19 -58 -39
-32 -39 7 0 53 -20 103 -44 130 -64 226 -161 279 -281 9 -22 21 -49 26 -60 17
-38 32 -177 25 -239 -30 -283 -236 -508 -537 -585 -120 -31 -277 -39 -783 -43
l-470 -3 -3 558 c-1 307 -6 557 -11 557 -5 0 -15 -7 -22 -16 -13 -16 -258
-222 -458 -384 -57 -47 -146 -120 -197 -163 l-94 -78 2 -237 3 -237 -296 -3
-295 -2 -120 -97 c-65 -53 -121 -100 -124 -103 -3 -4 -104 -87 -225 -185 -121
-98 -227 -184 -235 -191 -210 -184 -126 -84 135 161 105 98 233 219 286 269
52 50 153 145 225 211 71 66 165 154 209 196 44 41 116 109 160 150 211 198
454 426 585 549 157 148 494 461 795 739 105 97 235 219 290 271 55 53 130
123 166 156 48 43 488 449 595 549 293 273 471 433 483 435 2 0 -4 -10 -15
-22z m-4024 -538 c0 -5 -4 -10 -10 -10 -5 0 -10 5 -10 10 0 6 5 10 10 10 6 0
10 -4 10 -10z m4813 -105 c-3 -9 -8 -14 -10 -11 -3 3 -2 9 2 15 9 16 15 13 8
-4z m-7 -113 c-4 -3 -11 0 -16 8 -15 24 -11 33 6 15 9 -9 13 -19 10 -23z
m-4217 -2259 c-32 -37 -41 -43 -59 -42 -42 3 -90 -2 -90 -10 0 -5 18 -7 40 -5
22 2 40 0 40 -4 -1 -4 -19 -23 -41 -42 -23 -19 -67 -60 -98 -90 -79 -76 -190
-173 -215 -187 -28 -17 -66 -16 -66 1 0 15 67 76 83 76 6 0 8 3 4 6 -3 3 20
32 51 64 31 32 75 79 96 104 21 25 43 46 47 46 14 0 49 33 49 46 0 7 14 24 31
38 26 22 41 26 92 26 l60 0 -24 -27z m-1513 -20 c-10 -10 -19 5 -10 18 6 11 8
11 12 0 2 -7 1 -15 -2 -18z m41 -32 c7 -9 13 -23 13 -32 0 -17 55 -125 76
-149 7 -8 32 -53 55 -100 23 -47 50 -91 60 -98 11 -7 19 -17 19 -22 0 -11 50
-88 110 -170 22 -30 51 -71 64 -90 13 -19 52 -64 88 -100 36 -36 67 -71 69
-77 5 -16 230 -243 241 -243 4 0 36 -29 71 -64 34 -35 72 -66 85 -70 12 -4 22
-11 22 -16 0 -4 15 -17 33 -29 17 -12 50 -35 72 -51 59 -45 125 -90 131 -90 3
0 28 -17 57 -38 29 -20 75 -48 102 -62 28 -13 61 -32 75 -41 55 -37 158 -86
193 -93 21 -4 35 -11 32 -17 -4 -5 -1 -9 4 -9 26 0 8 -20 -24 -26 -19 -3 -35
-10 -35 -15 0 -14 -59 12 -64 29 -5 13 -17 17 -61 16 -41 -1 -55 2 -55 12 0
20 -27 17 -39 -3 -7 -11 -14 -14 -18 -8 -9 11 -57 35 -116 59 -21 9 -36 20
-33 25 3 4 -16 16 -42 26 -26 10 -72 35 -102 55 -31 21 -71 45 -90 55 -19 10
-44 26 -55 36 -77 68 -104 89 -111 89 -5 0 -34 22 -64 50 -30 27 -60 49 -66
50 -11 0 -230 222 -284 289 -19 23 -45 54 -57 67 -13 14 -23 28 -23 33 0 4
-16 25 -36 47 -37 41 -104 136 -104 148 0 4 -9 16 -20 28 -11 12 -32 44 -46
72 -15 28 -32 55 -39 61 -7 5 -23 37 -36 70 -13 33 -26 62 -29 65 -3 3 -6 21
-7 40 -4 56 -7 70 -13 70 -10 0 -38 64 -46 105 -5 22 -9 60 -9 85 -1 40 1 46
19 46 12 0 26 -7 33 -15z m-22 -232 c11 -17 -1 -21 -15 -4 -8 9 -8 15 -2 15 6
0 14 -5 17 -11z m1015 -135 c0 -6 -32 -35 -136 -122 -80 -67 -94 -76 -94 -66
0 4 41 49 92 100 63 65 99 94 115 94 13 0 23 -3 23 -6z m-269 -237 c-10 -9
-11 -8 -5 6 3 10 9 15 12 12 3 -3 0 -11 -7 -18z m1722 -4 c-7 -2 -19 -2 -25 0
-7 3 -2 5 12 5 14 0 19 -2 13 -5z m640 0 c-7 -2 -19 -2 -25 0 -7 3 -2 5 12 5
14 0 19 -2 13 -5z m634 1 c-3 -3 -12 -4 -19 -1 -8 3 -5 6 6 6 11 1 17 -2 13
-5z m-4533 -306 c14 -30 25 -45 25 -34 1 18 3 17 21 -4 11 -13 20 -29 20 -37
0 -7 5 -13 10 -13 6 0 10 -6 10 -14 0 -7 7 -19 15 -26 8 -7 15 -20 15 -29 0
-9 15 -32 33 -52 17 -20 39 -46 47 -59 22 -34 64 -85 73 -88 4 -2 7 -8 7 -14
0 -6 16 -30 35 -54 19 -23 35 -45 35 -47 0 -3 15 -20 33 -39 37 -39 139 -155
166 -189 35 -44 239 -244 315 -309 42 -36 102 -89 133 -117 31 -29 61 -53 66
-53 6 0 29 -17 52 -37 53 -48 88 -75 148 -114 26 -17 47 -35 47 -41 0 -5 5 -6
11 -3 11 8 40 -25 33 -37 -3 -5 4 -8 15 -8 11 0 23 -4 26 -10 3 -5 15 -10 26
-10 10 0 19 -6 19 -14 0 -7 15 -17 33 -22 23 -7 33 -16 35 -33 5 -30 20 -46
52 -54 32 -9 56 -24 49 -32 -3 -3 -19 1 -35 10 -16 8 -34 15 -40 15 -6 0 -18
8 -27 18 -9 10 -29 19 -44 20 -15 1 -29 7 -31 12 -2 6 -10 10 -18 10 -8 0 -17
6 -20 14 -6 14 -66 18 -79 5 -7 -8 39 -38 64 -42 21 -3 74 -57 65 -66 -2 -3
-10 1 -16 7 -7 7 -20 12 -30 12 -10 0 -23 9 -30 20 -7 11 -18 20 -25 20 -6 0
-19 10 -28 23 -8 12 -26 22 -38 22 -12 0 -21 5 -20 12 2 7 -14 17 -35 22 -20
6 -44 18 -53 28 -27 30 -58 53 -72 53 -7 0 -19 9 -27 20 -8 11 -20 20 -28 20
-7 0 -35 20 -61 45 -26 25 -53 45 -58 45 -5 0 -18 10 -29 21 -10 12 -48 45
-84 74 -147 119 -487 476 -526 551 -7 13 -28 39 -46 57 -18 18 -55 69 -82 112
-27 44 -56 88 -65 97 -33 35 -41 48 -41 63 0 8 -4 15 -10 15 -5 0 -10 9 -10
21 0 11 -4 17 -10 14 -20 -12 -9 13 11 27 20 13 20 15 5 27 -15 13 -18 12 -23
-7 -3 -12 -9 -20 -13 -17 -5 3 -6 14 -3 25 3 11 9 18 13 15 15 -9 20 13 10 37
-6 12 -19 37 -29 53 -17 27 -29 115 -16 115 3 0 16 -24 29 -52z m5596 -766 c0
-15 -4 -63 -10 -107 -5 -44 -14 -142 -20 -218 l-10 -138 51 -110 c28 -61 50
-111 48 -113 -24 -18 -164 -75 -170 -69 -4 4 -28 56 -54 114 l-46 106 -106 74
c-205 143 -286 204 -286 214 1 5 42 28 91 51 l90 42 78 -65 c44 -36 94 -79
112 -96 47 -45 53 -29 47 131 l-5 133 82 39 c45 22 88 40 95 40 8 0 13 -12 13
-28z m-3602 -49 c243 -108 308 -171 288 -276 -15 -77 -69 -125 -146 -130 -46
-2 -48 -7 -19 -33 103 -93 37 -260 -107 -272 -74 -6 -126 9 -292 85 -110 51
-142 70 -139 82 3 9 35 81 72 161 37 80 97 211 133 293 36 81 69 147 74 147 5
0 66 -26 136 -57z m668 -259 c36 -9 68 -23 71 -30 3 -7 -7 -59 -21 -116 -84
-335 -89 -372 -53 -414 33 -38 110 -45 150 -14 34 27 43 48 67 160 44 205 73
326 81 334 5 6 40 2 89 -9 60 -14 80 -22 80 -35 0 -42 -90 -413 -114 -472 -24
-56 -61 -93 -118 -118 -45 -19 -64 -22 -133 -17 -192 13 -305 107 -305 254 0
32 12 108 25 168 14 61 34 151 45 200 30 142 23 137 136 109z m2083 -85 c111
-56 176 -172 174 -314 -1 -192 -104 -284 -393 -350 -83 -19 -157 -35 -165 -35
-16 0 -28 39 -56 180 -11 52 -28 131 -39 175 -37 158 -62 297 -54 305 7 6 115
33 259 63 11 3 63 5 116 6 88 1 101 -1 158 -30z m-1116 -58 c118 -8 132 -11
201 -45 114 -56 162 -128 173 -257 15 -172 -57 -288 -214 -350 -53 -21 -75
-23 -248 -23 l-190 -1 2 255 c1 140 2 294 3 343 l0 87 73 0 c39 -1 129 -5 200
-9z m-2243 -291 c0 -5 -4 -10 -10 -10 -5 0 -10 5 -10 10 0 6 5 10 10 10 6 0
10 -4 10 -10z"/>
<path d="M7660 8443 c-52 -41 -96 -78 -98 -82 -3 -8 117 -96 122 -90 7 7 77
241 74 244 -2 2 -46 -31 -98 -72z"/>
<path d="M3593 6643 c15 -2 39 -2 55 0 15 2 2 4 -28 4 -30 0 -43 -2 -27 -4z"/>
<path d="M3578 6293 c7 -3 16 -2 19 1 4 3 -2 6 -13 5 -11 0 -14 -3 -6 -6z"/>
<path d="M4118 4333 c7 -3 16 -2 19 1 4 3 -2 6 -13 5 -11 0 -14 -3 -6 -6z"/>
<path d="M6486 6166 l-106 -114 0 -221 0 -221 32 0 c54 0 161 22 198 40 47 24
74 55 102 115 21 45 23 65 23 195 0 175 -15 229 -76 284 -21 20 -45 36 -53 36
-7 0 -61 -51 -120 -114z"/>
<path d="M6380 4905 l0 -365 73 0 c138 0 229 44 270 132 44 94 60 257 36 370
-32 154 -131 228 -306 228 l-73 0 0 -365z"/>
<path d="M1880 3059 c0 -9 9 -24 20 -34 26 -23 26 -4 0 26 -15 18 -19 20 -20
8z"/>
<path d="M3763 2313 c-8 -21 -22 -51 -30 -66 -14 -27 -13 -28 29 -47 60 -27
113 -26 132 2 35 50 10 101 -66 133 -21 8 -40 15 -43 15 -3 0 -13 -17 -22 -37z"/>
<path d="M3636 2038 c-14 -35 -26 -66 -26 -69 0 -12 98 -49 128 -49 35 0 72
37 72 71 0 38 -87 109 -133 109 -8 0 -26 -28 -41 -62z"/>
<path d="M6277 2020 c-20 -4 -39 -9 -42 -12 -3 -3 11 -79 30 -169 20 -90 39
-179 42 -196 7 -40 20 -41 98 -12 72 27 110 59 130 114 27 69 -1 191 -55 240
-42 38 -119 52 -203 35z"/>
<path d="M5355 1752 c-4 -110 -4 -205 0 -211 15 -25 141 0 200 40 69 47 93
144 59 242 -25 73 -82 108 -200 123 l-51 6 -8 -200z"/>
</g>
</svg>
